<?xml version="1.0" encoding="UTF-8" standalone="no"?><svg xmlns="http://www.w3.org/2000/svg" xmlns:xlink="http://www.w3.org/1999/xlink" contentScriptType="application/ecmascript" contentStyleType="text/css" height="562px" preserveAspectRatio="none" style="width:949px;height:562px;" version="1.1" viewBox="0 0 949 562" width="949px" zoomAndPan="magnify"><defs><filter height="300%" id="f1phmqgyhusceb" width="300%" x="-1" y="-1"><feGaussianBlur result="blurOut" stdDeviation="2.0"/><feColorMatrix in="blurOut" result="blurOut2" type="matrix" values="0 0 0 0 0 0 0 0 0 0 0 0 0 0 0 0 0 0 .4 0"/><feOffset dx="4.0" dy="4.0" in="blurOut2" result="blurOut3"/><feBlend in="SourceGraphic" in2="blurOut3" mode="normal"/></filter></defs><g><!--MD5=[009f388bfd9d5aedd3f9227320765b7b]
class WidgetFactory--><rect fill="#FEFECE" filter="url(#f1phmqgyhusceb)" height="86.4141" id="WidgetFactory" style="stroke: #A80036; stroke-width: 1.5;" width="211" x="462" y="181"/><ellipse cx="518.75" cy="197" fill="#B4A7E5" rx="11" ry="11" style="stroke: #A80036; stroke-width: 1.0;"/><path d="M514.6719,192.7656 L514.6719,190.6094 L522.0625,190.6094 L522.0625,192.7656 L519.5938,192.7656 L519.5938,200.8438 L522.0625,200.8438 L522.0625,203 L514.6719,203 L514.6719,200.8438 L517.1406,200.8438 L517.1406,192.7656 L514.6719,192.7656 Z "/><text fill="#000000" font-family="sans-serif" font-size="12" font-style="italic" lengthAdjust="spacingAndGlyphs" textLength="89" x="539.25" y="201.1543">WidgetFactory</text><line style="stroke: #A80036; stroke-width: 1.5;" x1="463" x2="672" y1="213" y2="213"/><line style="stroke: #A80036; stroke-width: 1.5;" x1="463" x2="672" y1="221" y2="221"/><ellipse cx="473" cy="232" fill="#84BE84" rx="3" ry="3" style="stroke: #038048; stroke-width: 1.0;"/><text fill="#000000" font-family="sans-serif" font-size="11" lengthAdjust="spacingAndGlyphs" textLength="165" x="482" y="235.2104">makeWindow(String): Window</text><ellipse cx="473" cy="244.8047" fill="#84BE84" rx="3" ry="3" style="stroke: #038048; stroke-width: 1.0;"/><text fill="#000000" font-family="sans-serif" font-size="11" lengthAdjust="spacingAndGlyphs" textLength="185" x="482" y="248.0151">makeScrollBar(String): ScrollBar</text><ellipse cx="473" cy="257.6094" fill="#84BE84" rx="3" ry="3" style="stroke: #038048; stroke-width: 1.0;"/><text fill="#000000" font-family="sans-serif" font-size="11" lengthAdjust="spacingAndGlyphs" textLength="155" x="482" y="260.8198">makeButton(String): Button</text><!--MD5=[86bba0fa1a7136baea97f08615b51727]
class MotifWidgetFactory--><rect fill="#FEFECE" filter="url(#f1phmqgyhusceb)" height="86.4141" id="MotifWidgetFactory" style="stroke: #A80036; stroke-width: 1.5;" width="211" x="225" y="328"/><ellipse cx="267" cy="344" fill="#ADD1B2" rx="11" ry="11" style="stroke: #A80036; stroke-width: 1.0;"/><path d="M269.9688,349.6406 Q269.3906,349.9375 268.75,350.0859 Q268.1094,350.2344 267.4063,350.2344 Q264.9063,350.2344 263.5859,348.5859 Q262.2656,346.9375 262.2656,343.8125 Q262.2656,340.6875 263.5859,339.0313 Q264.9063,337.375 267.4063,337.375 Q268.1094,337.375 268.7578,337.5313 Q269.4063,337.6875 269.9688,337.9844 L269.9688,340.7031 Q269.3438,340.125 268.75,339.8516 Q268.1563,339.5781 267.5313,339.5781 Q266.1875,339.5781 265.5,340.6484 Q264.8125,341.7188 264.8125,343.8125 Q264.8125,345.9063 265.5,346.9766 Q266.1875,348.0469 267.5313,348.0469 Q268.1563,348.0469 268.75,347.7734 Q269.3438,347.5 269.9688,346.9219 L269.9688,349.6406 Z "/><text fill="#000000" font-family="sans-serif" font-size="12" lengthAdjust="spacingAndGlyphs" textLength="119" x="287" y="348.1543">MotifWidgetFactory</text><line style="stroke: #A80036; stroke-width: 1.5;" x1="226" x2="435" y1="360" y2="360"/><line style="stroke: #A80036; stroke-width: 1.5;" x1="226" x2="435" y1="368" y2="368"/><ellipse cx="236" cy="379" fill="#84BE84" rx="3" ry="3" style="stroke: #038048; stroke-width: 1.0;"/><text fill="#000000" font-family="sans-serif" font-size="11" lengthAdjust="spacingAndGlyphs" textLength="165" x="245" y="382.2104">makeWindow(String): Window</text><ellipse cx="236" cy="391.8047" fill="#84BE84" rx="3" ry="3" style="stroke: #038048; stroke-width: 1.0;"/><text fill="#000000" font-family="sans-serif" font-size="11" lengthAdjust="spacingAndGlyphs" textLength="185" x="245" y="395.0151">makeScrollBar(String): ScrollBar</text><ellipse cx="236" cy="404.6094" fill="#84BE84" rx="3" ry="3" style="stroke: #038048; stroke-width: 1.0;"/><text fill="#000000" font-family="sans-serif" font-size="11" lengthAdjust="spacingAndGlyphs" textLength="155" x="245" y="407.8198">makeButton(String): Button</text><!--MD5=[032b7f90354b19d8805724e9e1059a3d]
class PMWidgetFactory--><rect fill="#FEFECE" filter="url(#f1phmqgyhusceb)" height="86.4141" id="PMWidgetFactory" style="stroke: #A80036; stroke-width: 1.5;" width="211" x="471" y="328"/><ellipse cx="518.75" cy="344" fill="#ADD1B2" rx="11" ry="11" style="stroke: #A80036; stroke-width: 1.0;"/><path d="M521.7188,349.6406 Q521.1406,349.9375 520.5,350.0859 Q519.8594,350.2344 519.1563,350.2344 Q516.6563,350.2344 515.3359,348.5859 Q514.0156,346.9375 514.0156,343.8125 Q514.0156,340.6875 515.3359,339.0313 Q516.6563,337.375 519.1563,337.375 Q519.8594,337.375 520.5078,337.5313 Q521.1563,337.6875 521.7188,337.9844 L521.7188,340.7031 Q521.0938,340.125 520.5,339.8516 Q519.9063,339.5781 519.2813,339.5781 Q517.9375,339.5781 517.25,340.6484 Q516.5625,341.7188 516.5625,343.8125 Q516.5625,345.9063 517.25,346.9766 Q517.9375,348.0469 519.2813,348.0469 Q519.9063,348.0469 520.5,347.7734 Q521.0938,347.5 521.7188,346.9219 L521.7188,349.6406 Z "/><text fill="#000000" font-family="sans-serif" font-size="12" lengthAdjust="spacingAndGlyphs" textLength="107" x="539.25" y="348.1543">PMWidgetFactory</text><line style="stroke: #A80036; stroke-width: 1.5;" x1="472" x2="681" y1="360" y2="360"/><line style="stroke: #A80036; stroke-width: 1.5;" x1="472" x2="681" y1="368" y2="368"/><ellipse cx="482" cy="379" fill="#84BE84" rx="3" ry="3" style="stroke: #038048; stroke-width: 1.0;"/><text fill="#000000" font-family="sans-serif" font-size="11" lengthAdjust="spacingAndGlyphs" textLength="165" x="491" y="382.2104">makeWindow(String): Window</text><ellipse cx="482" cy="391.8047" fill="#84BE84" rx="3" ry="3" style="stroke: #038048; stroke-width: 1.0;"/><text fill="#000000" font-family="sans-serif" font-size="11" lengthAdjust="spacingAndGlyphs" textLength="185" x="491" y="395.0151">makeScrollBar(String): ScrollBar</text><ellipse cx="482" cy="404.6094" fill="#84BE84" rx="3" ry="3" style="stroke: #038048; stroke-width: 1.0;"/><text fill="#000000" font-family="sans-serif" font-size="11" lengthAdjust="spacingAndGlyphs" textLength="155" x="491" y="407.8198">makeButton(String): Button</text><!--MD5=[90ba54f54370e77ef24813dec6818fa3]
class Button--><rect fill="#FEFECE" filter="url(#f1phmqgyhusceb)" height="60.8047" id="Button" style="stroke: #A80036; stroke-width: 1.5;" width="76" x="51.5" y="340.5"/><ellipse cx="67.4" cy="356.5" fill="#A9DCDF" rx="11" ry="11" style="stroke: #A80036; stroke-width: 1.0;"/><path d="M67.5094,351.8438 L66.3531,356.9219 L68.6813,356.9219 L67.5094,351.8438 Z M66.025,349.6094 L69.0094,349.6094 L72.3688,362 L69.9156,362 L69.15,358.9375 L65.8688,358.9375 L65.1188,362 L62.6813,362 L66.025,349.6094 Z "/><text fill="#000000" font-family="sans-serif" font-size="12" font-style="italic" lengthAdjust="spacingAndGlyphs" textLength="42" x="81.6" y="360.6543">Button</text><line style="stroke: #A80036; stroke-width: 1.5;" x1="52.5" x2="126.5" y1="372.5" y2="372.5"/><text fill="#000000" font-family="sans-serif" font-size="11" lengthAdjust="spacingAndGlyphs" text-decoration="underline" textLength="64" x="57.5" y="386.7104">priority = 3</text><line style="stroke: #A80036; stroke-width: 1.5;" x1="52.5" x2="126.5" y1="393.3047" y2="393.3047"/><!--MD5=[355c294748cacd344ce88ae7d4f1f6f8]
class MotifButton--><rect fill="#FEFECE" filter="url(#f1phmqgyhusceb)" height="60.8047" id="MotifButton" style="stroke: #A80036; stroke-width: 1.5;" width="109" x="6" y="491"/><ellipse cx="23.25" cy="507" fill="#ADD1B2" rx="11" ry="11" style="stroke: #A80036; stroke-width: 1.0;"/><path d="M26.2188,512.6406 Q25.6406,512.9375 25,513.0859 Q24.3594,513.2344 23.6563,513.2344 Q21.1563,513.2344 19.8359,511.5859 Q18.5156,509.9375 18.5156,506.8125 Q18.5156,503.6875 19.8359,502.0313 Q21.1563,500.375 23.6563,500.375 Q24.3594,500.375 25.0078,500.5313 Q25.6563,500.6875 26.2188,500.9844 L26.2188,503.7031 Q25.5938,503.125 25,502.8516 Q24.4063,502.5781 23.7813,502.5781 Q22.4375,502.5781 21.75,503.6484 Q21.0625,504.7188 21.0625,506.8125 Q21.0625,508.9063 21.75,509.9766 Q22.4375,511.0469 23.7813,511.0469 Q24.4063,511.0469 25,510.7734 Q25.5938,510.5 26.2188,509.9219 L26.2188,512.6406 Z "/><text fill="#000000" font-family="sans-serif" font-size="12" lengthAdjust="spacingAndGlyphs" textLength="72" x="37.75" y="511.1543">MotifButton</text><line style="stroke: #A80036; stroke-width: 1.5;" x1="7" x2="114" y1="523" y2="523"/><line style="stroke: #A80036; stroke-width: 1.5;" x1="7" x2="114" y1="531" y2="531"/><ellipse cx="17" cy="542" fill="#84BE84" rx="3" ry="3" style="stroke: #038048; stroke-width: 1.0;"/><text fill="#000000" font-family="sans-serif" font-size="11" lengthAdjust="spacingAndGlyphs" textLength="83" x="26" y="545.2104">present(): void</text><!--MD5=[937c6e3bd4492b2e761d42ec78663e4f]
class PMButton--><rect fill="#FEFECE" filter="url(#f1phmqgyhusceb)" height="60.8047" id="PMButton" style="stroke: #A80036; stroke-width: 1.5;" width="109" x="161" y="491"/><ellipse cx="183.65" cy="507" fill="#ADD1B2" rx="11" ry="11" style="stroke: #A80036; stroke-width: 1.0;"/><path d="M186.6188,512.6406 Q186.0406,512.9375 185.4,513.0859 Q184.7594,513.2344 184.0563,513.2344 Q181.5563,513.2344 180.2359,511.5859 Q178.9156,509.9375 178.9156,506.8125 Q178.9156,503.6875 180.2359,502.0313 Q181.5563,500.375 184.0563,500.375 Q184.7594,500.375 185.4078,500.5313 Q186.0563,500.6875 186.6188,500.9844 L186.6188,503.7031 Q185.9938,503.125 185.4,502.8516 Q184.8063,502.5781 184.1813,502.5781 Q182.8375,502.5781 182.15,503.6484 Q181.4625,504.7188 181.4625,506.8125 Q181.4625,508.9063 182.15,509.9766 Q182.8375,511.0469 184.1813,511.0469 Q184.8063,511.0469 185.4,510.7734 Q185.9938,510.5 186.6188,509.9219 L186.6188,512.6406 Z "/><text fill="#000000" font-family="sans-serif" font-size="12" lengthAdjust="spacingAndGlyphs" textLength="60" x="199.35" y="511.1543">PMButton</text><line style="stroke: #A80036; stroke-width: 1.5;" x1="162" x2="269" y1="523" y2="523"/><line style="stroke: #A80036; stroke-width: 1.5;" x1="162" x2="269" y1="531" y2="531"/><ellipse cx="172" cy="542" fill="#84BE84" rx="3" ry="3" style="stroke: #038048; stroke-width: 1.0;"/><text fill="#000000" font-family="sans-serif" font-size="11" lengthAdjust="spacingAndGlyphs" textLength="83" x="181" y="545.2104">present(): void</text><!--MD5=[fa22f29c53ed6d2510bea2e0aa245b7f]
class Window--><rect fill="#FEFECE" filter="url(#f1phmqgyhusceb)" height="60.8047" id="Window" style="stroke: #A80036; stroke-width: 1.5;" width="90" x="717.5" y="340.5"/><ellipse cx="737.45" cy="356.5" fill="#A9DCDF" rx="11" ry="11" style="stroke: #A80036; stroke-width: 1.0;"/><path d="M737.5594,351.8438 L736.4031,356.9219 L738.7313,356.9219 L737.5594,351.8438 Z M736.075,349.6094 L739.0594,349.6094 L742.4188,362 L739.9656,362 L739.2,358.9375 L735.9188,358.9375 L735.1688,362 L732.7313,362 L736.075,349.6094 Z "/><text fill="#000000" font-family="sans-serif" font-size="12" font-style="italic" lengthAdjust="spacingAndGlyphs" textLength="47" x="752.55" y="360.6543">Window</text><line style="stroke: #A80036; stroke-width: 1.5;" x1="718.5" x2="806.5" y1="372.5" y2="372.5"/><rect fill="none" height="6" style="stroke: #C82930; stroke-width: 1.0;" width="6" x="725.5" y="380.5"/><text fill="#000000" font-family="sans-serif" font-size="11" lengthAdjust="spacingAndGlyphs" text-decoration="underline" textLength="64" x="737.5" y="386.7104">priority = 1</text><line style="stroke: #A80036; stroke-width: 1.5;" x1="718.5" x2="806.5" y1="393.3047" y2="393.3047"/><!--MD5=[49d5fb96a84dcdb95f9301498ea50de9]
class MotifWindow--><rect fill="#FEFECE" filter="url(#f1phmqgyhusceb)" height="60.8047" id="MotifWindow" style="stroke: #A80036; stroke-width: 1.5;" width="109" x="311" y="491"/><ellipse cx="326" cy="507" fill="#ADD1B2" rx="11" ry="11" style="stroke: #A80036; stroke-width: 1.0;"/><path d="M328.9688,512.6406 Q328.3906,512.9375 327.75,513.0859 Q327.1094,513.2344 326.4063,513.2344 Q323.9063,513.2344 322.5859,511.5859 Q321.2656,509.9375 321.2656,506.8125 Q321.2656,503.6875 322.5859,502.0313 Q323.9063,500.375 326.4063,500.375 Q327.1094,500.375 327.7578,500.5313 Q328.4063,500.6875 328.9688,500.9844 L328.9688,503.7031 Q328.3438,503.125 327.75,502.8516 Q327.1563,502.5781 326.5313,502.5781 Q325.1875,502.5781 324.5,503.6484 Q323.8125,504.7188 323.8125,506.8125 Q323.8125,508.9063 324.5,509.9766 Q325.1875,511.0469 326.5313,511.0469 Q327.1563,511.0469 327.75,510.7734 Q328.3438,510.5 328.9688,509.9219 L328.9688,512.6406 Z "/><text fill="#000000" font-family="sans-serif" font-size="12" lengthAdjust="spacingAndGlyphs" textLength="77" x="340" y="511.1543">MotifWindow</text><line style="stroke: #A80036; stroke-width: 1.5;" x1="312" x2="419" y1="523" y2="523"/><line style="stroke: #A80036; stroke-width: 1.5;" x1="312" x2="419" y1="531" y2="531"/><ellipse cx="322" cy="542" fill="#84BE84" rx="3" ry="3" style="stroke: #038048; stroke-width: 1.0;"/><text fill="#000000" font-family="sans-serif" font-size="11" lengthAdjust="spacingAndGlyphs" textLength="83" x="331" y="545.2104">present(): void</text><!--MD5=[bed5415f6c2dab3d580f5e4893233d76]
class PMWindow--><rect fill="#FEFECE" filter="url(#f1phmqgyhusceb)" height="60.8047" id="PMWindow" style="stroke: #A80036; stroke-width: 1.5;" width="109" x="674" y="491"/><ellipse cx="694.4" cy="507" fill="#ADD1B2" rx="11" ry="11" style="stroke: #A80036; stroke-width: 1.0;"/><path d="M697.3688,512.6406 Q696.7906,512.9375 696.15,513.0859 Q695.5094,513.2344 694.8063,513.2344 Q692.3063,513.2344 690.9859,511.5859 Q689.6656,509.9375 689.6656,506.8125 Q689.6656,503.6875 690.9859,502.0313 Q692.3063,500.375 694.8063,500.375 Q695.5094,500.375 696.1578,500.5313 Q696.8063,500.6875 697.3688,500.9844 L697.3688,503.7031 Q696.7438,503.125 696.15,502.8516 Q695.5563,502.5781 694.9313,502.5781 Q693.5875,502.5781 692.9,503.6484 Q692.2125,504.7188 692.2125,506.8125 Q692.2125,508.9063 692.9,509.9766 Q693.5875,511.0469 694.9313,511.0469 Q695.5563,511.0469 696.15,510.7734 Q696.7438,510.5 697.3688,509.9219 L697.3688,512.6406 Z "/><text fill="#000000" font-family="sans-serif" font-size="12" lengthAdjust="spacingAndGlyphs" textLength="65" x="709.6" y="511.1543">PMWindow</text><line style="stroke: #A80036; stroke-width: 1.5;" x1="675" x2="782" y1="523" y2="523"/><line style="stroke: #A80036; stroke-width: 1.5;" x1="675" x2="782" y1="531" y2="531"/><ellipse cx="685" cy="542" fill="#84BE84" rx="3" ry="3" style="stroke: #038048; stroke-width: 1.0;"/><text fill="#000000" font-family="sans-serif" font-size="11" lengthAdjust="spacingAndGlyphs" textLength="83" x="694" y="545.2104">present(): void</text><!--MD5=[d0a9da33539d453c59f47ad9daef1680]
class ScrollBar--><rect fill="#FEFECE" filter="url(#f1phmqgyhusceb)" height="60.8047" id="ScrollBar" style="stroke: #A80036; stroke-width: 1.5;" width="94" x="842.5" y="340.5"/><ellipse cx="860.65" cy="356.5" fill="#A9DCDF" rx="11" ry="11" style="stroke: #A80036; stroke-width: 1.0;"/><path d="M860.7594,351.8438 L859.6031,356.9219 L861.9313,356.9219 L860.7594,351.8438 Z M859.275,349.6094 L862.2594,349.6094 L865.6188,362 L863.1656,362 L862.4,358.9375 L859.1188,358.9375 L858.3688,362 L855.9313,362 L859.275,349.6094 Z "/><text fill="#000000" font-family="sans-serif" font-size="12" font-style="italic" lengthAdjust="spacingAndGlyphs" textLength="55" x="875.35" y="360.6543">ScrollBar</text><line style="stroke: #A80036; stroke-width: 1.5;" x1="843.5" x2="935.5" y1="372.5" y2="372.5"/><rect fill="none" height="6" style="stroke: #C82930; stroke-width: 1.0;" width="6" x="850.5" y="380.5"/><text fill="#000000" font-family="sans-serif" font-size="11" lengthAdjust="spacingAndGlyphs" text-decoration="underline" textLength="68" x="862.5" y="386.7104">priority  = 2</text><line style="stroke: #A80036; stroke-width: 1.5;" x1="843.5" x2="935.5" y1="393.3047" y2="393.3047"/><!--MD5=[8d773841c9d1f3d694bbbfc4517a44f1]
class MotifScrollBar--><rect fill="#FEFECE" filter="url(#f1phmqgyhusceb)" height="60.8047" id="MotifScrollBar" style="stroke: #A80036; stroke-width: 1.5;" width="117" x="500" y="491"/><ellipse cx="515" cy="507" fill="#ADD1B2" rx="11" ry="11" style="stroke: #A80036; stroke-width: 1.0;"/><path d="M517.9688,512.6406 Q517.3906,512.9375 516.75,513.0859 Q516.1094,513.2344 515.4063,513.2344 Q512.9063,513.2344 511.5859,511.5859 Q510.2656,509.9375 510.2656,506.8125 Q510.2656,503.6875 511.5859,502.0313 Q512.9063,500.375 515.4063,500.375 Q516.1094,500.375 516.7578,500.5313 Q517.4063,500.6875 517.9688,500.9844 L517.9688,503.7031 Q517.3438,503.125 516.75,502.8516 Q516.1563,502.5781 515.5313,502.5781 Q514.1875,502.5781 513.5,503.6484 Q512.8125,504.7188 512.8125,506.8125 Q512.8125,508.9063 513.5,509.9766 Q514.1875,511.0469 515.5313,511.0469 Q516.1563,511.0469 516.75,510.7734 Q517.3438,510.5 517.9688,509.9219 L517.9688,512.6406 Z "/><text fill="#000000" font-family="sans-serif" font-size="12" lengthAdjust="spacingAndGlyphs" textLength="85" x="529" y="511.1543">MotifScrollBar</text><line style="stroke: #A80036; stroke-width: 1.5;" x1="501" x2="616" y1="523" y2="523"/><line style="stroke: #A80036; stroke-width: 1.5;" x1="501" x2="616" y1="531" y2="531"/><ellipse cx="511" cy="542" fill="#84BE84" rx="3" ry="3" style="stroke: #038048; stroke-width: 1.0;"/><text fill="#000000" font-family="sans-serif" font-size="11" lengthAdjust="spacingAndGlyphs" textLength="83" x="520" y="545.2104">present(): void</text><!--MD5=[a97dc4df6f35bf749cf8f9169798390d]
class PMScrollBar--><rect fill="#FEFECE" filter="url(#f1phmqgyhusceb)" height="60.8047" id="PMScrollBar" style="stroke: #A80036; stroke-width: 1.5;" width="109" x="829" y="491"/><ellipse cx="845.8" cy="507" fill="#ADD1B2" rx="11" ry="11" style="stroke: #A80036; stroke-width: 1.0;"/><path d="M848.7688,512.6406 Q848.1906,512.9375 847.55,513.0859 Q846.9094,513.2344 846.2063,513.2344 Q843.7063,513.2344 842.3859,511.5859 Q841.0656,509.9375 841.0656,506.8125 Q841.0656,503.6875 842.3859,502.0313 Q843.7063,500.375 846.2063,500.375 Q846.9094,500.375 847.5578,500.5313 Q848.2063,500.6875 848.7688,500.9844 L848.7688,503.7031 Q848.1438,503.125 847.55,502.8516 Q846.9563,502.5781 846.3313,502.5781 Q844.9875,502.5781 844.3,503.6484 Q843.6125,504.7188 843.6125,506.8125 Q843.6125,508.9063 844.3,509.9766 Q844.9875,511.0469 846.3313,511.0469 Q846.9563,511.0469 847.55,510.7734 Q848.1438,510.5 848.7688,509.9219 L848.7688,512.6406 Z "/><text fill="#000000" font-family="sans-serif" font-size="12" lengthAdjust="spacingAndGlyphs" textLength="73" x="860.2" y="511.1543">PMScrollBar</text><line style="stroke: #A80036; stroke-width: 1.5;" x1="830" x2="937" y1="523" y2="523"/><line style="stroke: #A80036; stroke-width: 1.5;" x1="830" x2="937" y1="531" y2="531"/><ellipse cx="840" cy="542" fill="#84BE84" rx="3" ry="3" style="stroke: #038048; stroke-width: 1.0;"/><text fill="#000000" font-family="sans-serif" font-size="11" lengthAdjust="spacingAndGlyphs" textLength="83" x="849" y="545.2104">present(): void</text><!--MD5=[e9dc9881b850c1e2d2a8f30edb40e840]
class Widget--><rect fill="#FEFECE" filter="url(#f1phmqgyhusceb)" height="86.4141" id="Widget" style="stroke: #A80036; stroke-width: 1.5;" width="109" x="708" y="181"/><ellipse cx="738.3" cy="197" fill="#A9DCDF" rx="11" ry="11" style="stroke: #A80036; stroke-width: 1.0;"/><path d="M738.4094,192.3438 L737.2531,197.4219 L739.5813,197.4219 L738.4094,192.3438 Z M736.925,190.1094 L739.9094,190.1094 L743.2688,202.5 L740.8156,202.5 L740.05,199.4375 L736.7688,199.4375 L736.0188,202.5 L733.5813,202.5 L736.925,190.1094 Z "/><text fill="#000000" font-family="sans-serif" font-size="12" font-style="italic" lengthAdjust="spacingAndGlyphs" textLength="43" x="755.7" y="201.1543">Widget</text><line style="stroke: #A80036; stroke-width: 1.5;" x1="709" x2="816" y1="213" y2="213"/><rect fill="none" height="6" style="stroke: #C82930; stroke-width: 1.0;" width="6" x="716" y="221"/><text fill="#000000" font-family="sans-serif" font-size="11" lengthAdjust="spacingAndGlyphs" textLength="32" x="728" y="227.2104">id: int</text><rect fill="none" height="6" style="stroke: #C82930; stroke-width: 1.0;" width="6" x="716" y="233.8047"/><text fill="#000000" font-family="sans-serif" font-size="11" lengthAdjust="spacingAndGlyphs" textLength="74" x="728" y="240.0151">name: String</text><line style="stroke: #A80036; stroke-width: 1.5;" x1="709" x2="816" y1="246.6094" y2="246.6094"/><ellipse cx="719" cy="257.6094" fill="#84BE84" rx="3" ry="3" style="stroke: #038048; stroke-width: 1.0;"/><text fill="#000000" font-family="sans-serif" font-size="11" font-style="italic" lengthAdjust="spacingAndGlyphs" textLength="83" x="728" y="260.8198">present(): void</text><!--MD5=[1f9aa183c03a5a4b2c7a355206fc0cf9]
class GUI--><rect fill="#FEFECE" filter="url(#f1phmqgyhusceb)" height="112.0234" id="GUI" style="stroke: #A80036; stroke-width: 1.5;" width="190" x="569.5" y="8"/><ellipse cx="649.75" cy="24" fill="#ADD1B2" rx="11" ry="11" style="stroke: #A80036; stroke-width: 1.0;"/><path d="M652.7188,29.6406 Q652.1406,29.9375 651.5,30.0859 Q650.8594,30.2344 650.1563,30.2344 Q647.6563,30.2344 646.3359,28.5859 Q645.0156,26.9375 645.0156,23.8125 Q645.0156,20.6875 646.3359,19.0313 Q647.6563,17.375 650.1563,17.375 Q650.8594,17.375 651.5078,17.5313 Q652.1563,17.6875 652.7188,17.9844 L652.7188,20.7031 Q652.0938,20.125 651.5,19.8516 Q650.9063,19.5781 650.2813,19.5781 Q648.9375,19.5781 648.25,20.6484 Q647.5625,21.7188 647.5625,23.8125 Q647.5625,25.9063 648.25,26.9766 Q648.9375,28.0469 650.2813,28.0469 Q650.9063,28.0469 651.5,27.7734 Q652.0938,27.5 652.7188,26.9219 L652.7188,29.6406 Z "/><text fill="#000000" font-family="sans-serif" font-size="12" lengthAdjust="spacingAndGlyphs" textLength="21" x="670.25" y="28.1543">GUI</text><line style="stroke: #A80036; stroke-width: 1.5;" x1="570.5" x2="758.5" y1="40" y2="40"/><rect fill="none" height="6" style="stroke: #C82930; stroke-width: 1.0;" width="6" x="577.5" y="48"/><text fill="#000000" font-family="sans-serif" font-size="11" lengthAdjust="spacingAndGlyphs" textLength="127" x="589.5" y="54.2104">widgets: List&lt;Widget&gt;</text><rect fill="none" height="6" style="stroke: #C82930; stroke-width: 1.0;" width="6" x="577.5" y="60.8047"/><text fill="#000000" font-family="sans-serif" font-size="11" lengthAdjust="spacingAndGlyphs" textLength="164" x="589.5" y="67.0151">widgetFactory: WidgetFactory</text><line style="stroke: #A80036; stroke-width: 1.5;" x1="570.5" x2="758.5" y1="73.6094" y2="73.6094"/><ellipse cx="580.5" cy="84.6094" fill="#84BE84" rx="3" ry="3" style="stroke: #038048; stroke-width: 1.0;"/><text fill="#000000" font-family="sans-serif" font-size="11" lengthAdjust="spacingAndGlyphs" textLength="136" x="589.5" y="87.8198">add(String, String): void</text><ellipse cx="580.5" cy="97.4141" fill="#84BE84" rx="3" ry="3" style="stroke: #038048; stroke-width: 1.0;"/><text fill="#000000" font-family="sans-serif" font-size="11" lengthAdjust="spacingAndGlyphs" textLength="163" x="589.5" y="100.6245">setStyle(WidgetFactory): void</text><ellipse cx="580.5" cy="110.2188" fill="#84BE84" rx="3" ry="3" style="stroke: #038048; stroke-width: 1.0;"/><text fill="#000000" font-family="sans-serif" font-size="11" lengthAdjust="spacingAndGlyphs" textLength="83" x="589.5" y="113.4292">present(): void</text><!--MD5=[e00946dab19e24a85c5cc68429f164e0]
reverse link WidgetFactory to MotifWidgetFactory--><path d="M480.8946,277.7173 C454.271,294.2306 425.3268,312.1834 400.0052,327.8892 " fill="none" id="WidgetFactory&lt;-MotifWidgetFactory" style="stroke: #A80036; stroke-width: 1.0;"/><polygon fill="none" points="477.3077,271.7049,497.9935,267.1116,484.6871,283.6022,477.3077,271.7049" style="stroke: #A80036; stroke-width: 1.0;"/><!--MD5=[2a1cd9adff4b8b01a51e2228fdac0f14]
reverse link WidgetFactory to PMWidgetFactory--><path d="M571.3857,287.4665 C572.2237,301.1535 573.0906,315.3135 573.8673,327.9998 " fill="none" id="WidgetFactory&lt;-PMWidgetFactory" style="stroke: #A80036; stroke-width: 1.0;"/><polygon fill="none" points="564.387,287.7002,570.1516,267.3098,578.3608,286.8446,564.387,287.7002" style="stroke: #A80036; stroke-width: 1.0;"/><!--MD5=[d6f202c4c060223b4e5dd171fc774b25]
reverse link Button to MotifButton--><path d="M75.569,421.1115 C73.7056,428.7435 71.9432,436.5553 70.5,444 C67.531,459.3162 65.2114,476.5111 63.557,490.806 " fill="none" id="Button&lt;-MotifButton" style="stroke: #A80036; stroke-width: 1.0;"/><polygon fill="none" points="68.803,419.3157,80.5874,401.7053,82.3571,422.8209,68.803,419.3157" style="stroke: #A80036; stroke-width: 1.0;"/><!--MD5=[3ca6885c3e9924a83d85f77dd2c0aabc]
reverse link Button to PMButton--><path d="M94.5781,421.9193 C97.8193,435.5948 103.0591,449.7062 111.5,461 C124.0676,477.8153 142.796,490.7521 160.9109,500.264 " fill="none" id="Button&lt;-PMButton" style="stroke: #A80036; stroke-width: 1.0;"/><polygon fill="none" points="87.6314,422.8348,91.0378,401.9208,101.4171,420.3943,87.6314,422.8348" style="stroke: #A80036; stroke-width: 1.0;"/><!--MD5=[0cb932747347128c7a07fb6fd74671aa]
reverse link Window to MotifWindow--><path d="M706.09,411.2228 C703.902,412.2284 701.7018,413.1597 699.5,414 C603.5995,450.6003 565.7084,405.6354 470.5,444 C443.6009,454.8391 417.3509,474.2141 397.8257,490.8793 " fill="none" id="Window&lt;-MotifWindow" style="stroke: #A80036; stroke-width: 1.0;"/><polygon fill="none" points="702.8409,405.0211,723.7414,401.5327,709.5781,417.2935,702.8409,405.0211" style="stroke: #A80036; stroke-width: 1.0;"/><!--MD5=[ef4cec3c03f665d5fe0c3002e548650c]
reverse link Window to PMWindow--><path d="M786.3456,420.7679 C789.7198,434.0564 790.5567,448.2587 785.5,461 C781.1349,471.9988 773.7179,482.1588 765.6521,490.8888 " fill="none" id="Window&lt;-PMWindow" style="stroke: #A80036; stroke-width: 1.0;"/><polygon fill="none" points="779.6413,422.7993,779.7111,401.6098,792.8705,418.218,779.6413,422.7993" style="stroke: #A80036; stroke-width: 1.0;"/><!--MD5=[4774af08b770784a17ec71992dd88e57]
reverse link ScrollBar to MotifScrollBar--><path d="M865.6648,419.2399 C855.644,434.8622 842.5404,450.778 826.5,461 C761.7982,502.2323 731.0567,472.8971 656.5,491 C643.6864,494.1112 630.092,497.9723 617.239,501.8897 " fill="none" id="ScrollBar&lt;-MotifScrollBar" style="stroke: #A80036; stroke-width: 1.0;"/><polygon fill="none" points="859.7384,415.5058,875.8317,401.7214,871.847,422.533,859.7384,415.5058" style="stroke: #A80036; stroke-width: 1.0;"/><!--MD5=[0c99139a49027119b42aabe5ed80349e]
reverse link ScrollBar to PMScrollBar--><path d="M887.4655,422.0314 C886.5523,444.9381 885.5055,471.1962 884.7168,490.9796 " fill="none" id="ScrollBar&lt;-PMScrollBar" style="stroke: #A80036; stroke-width: 1.0;"/><polygon fill="none" points="880.4801,421.5243,888.2713,401.8191,894.469,422.0821,880.4801,421.5243" style="stroke: #A80036; stroke-width: 1.0;"/><!--MD5=[f6da55f2e34ab437d46580fb7c7fdf1f]
reverse link Widget to Button--><path d="M688.6869,266.217 C481.8288,334.0777 411.6351,278.5766 207.5,328 C180.1628,334.6186 150.4136,345.4856 127.6248,354.6387 " fill="none" id="Widget&lt;-Button" style="stroke: #A80036; stroke-width: 1.0;"/><polygon fill="none" points="686.6087,259.5302,707.7974,259.7293,691.1092,272.7871,686.6087,259.5302" style="stroke: #A80036; stroke-width: 1.0;"/><!--MD5=[c3812a97a66b0b114ab8cc91abcf2c77]
reverse link Widget to Window--><path d="M762.5,287.3426 C762.5,305.6269 762.5,324.7664 762.5,340.1168 " fill="none" id="Widget&lt;-Window" style="stroke: #A80036; stroke-width: 1.0;"/><polygon fill="none" points="755.5001,287.3098,762.5,267.3098,769.5001,287.3097,755.5001,287.3098" style="stroke: #A80036; stroke-width: 1.0;"/><!--MD5=[e9265b9d6d1b3070fa3118db6a9d066c]
reverse link Widget to ScrollBar--><path d="M813.1669,282.646 C830.1522,302.3061 848.4158,323.4459 862.8186,340.1168 " fill="none" id="Widget&lt;-ScrollBar" style="stroke: #A80036; stroke-width: 1.0;"/><polygon fill="none" points="807.6954,287.0202,799.9173,267.3098,818.2894,277.8677,807.6954,287.0202" style="stroke: #A80036; stroke-width: 1.0;"/><!--MD5=[5b599c8d8dead8c0a343b0c32e65c133]
link GUI to Widget--><path d="M699.0511,120.41 C710.2783,138.7401 722.6169,158.8848 733.4048,176.4976 " fill="none" id="GUI-&gt;Widget" style="stroke: #A80036; stroke-width: 1.0;"/><polygon fill="#A80036" points="736.1124,180.9182,734.8225,171.1542,733.5008,176.6544,728.0005,175.3327,736.1124,180.9182" style="stroke: #A80036; stroke-width: 1.0;"/><text fill="#000000" font-family="sans-serif" font-size="13" lengthAdjust="spacingAndGlyphs" textLength="7" x="724.3491" y="169.9012">*</text><!--MD5=[1c2cfbdd3c04cfeda8bc5d427a9301e0]
link GUI to WidgetFactory--><path d="M630.3014,120.41 C619.1888,138.7401 606.9761,158.8848 596.2983,176.4976 " fill="none" id="GUI-&gt;WidgetFactory" style="stroke: #A80036; stroke-width: 1.0;"/><polygon fill="#A80036" points="593.6183,180.9182,601.7046,175.2957,596.2104,176.6426,594.8636,171.1484,593.6183,180.9182" style="stroke: #A80036; stroke-width: 1.0;"/><text fill="#000000" font-family="sans-serif" font-size="13" lengthAdjust="spacingAndGlyphs" textLength="8" x="589.1434" y="169.9012">1</text><!--MD5=[710083505566f3ecb7be7630c8cf1182]
link MotifWidgetFactory to MotifButton--><path d="M224.8786,404.6313 C197.7096,415.355 169.1948,428.5318 144.5,444 C125.4326,455.9433 106.7765,472.5111 91.9081,487.2636 " fill="none" id="MotifWidgetFactory-&gt;MotifButton" style="stroke: #A80036; stroke-width: 1.0; stroke-dasharray: 7.0,7.0;"/><polygon fill="#A80036" points="88.2117,490.9712,97.3987,487.4217,91.7419,487.4303,91.7333,481.7735,88.2117,490.9712" style="stroke: #A80036; stroke-width: 1.0;"/><text fill="#000000" font-family="sans-serif" font-size="13" lengthAdjust="spacingAndGlyphs" textLength="64" x="145.5" y="457.0669">«creates»</text><!--MD5=[0df05f436a6b13f4d03516f13fa38b85]
link MotifWidgetFactory to MotifScrollBar--><path d="M395.8356,414.1273 C431.3493,437.5694 474.6197,466.1316 507.602,487.9028 " fill="none" id="MotifWidgetFactory-&gt;MotifScrollBar" style="stroke: #A80036; stroke-width: 1.0; stroke-dasharray: 7.0,7.0;"/><polygon fill="#A80036" points="511.9806,490.7931,506.673,482.4968,507.8077,488.0387,502.2658,489.1734,511.9806,490.7931" style="stroke: #A80036; stroke-width: 1.0;"/><text fill="#000000" font-family="sans-serif" font-size="13" lengthAdjust="spacingAndGlyphs" textLength="64" x="466.5" y="457.0669">«creates»</text><!--MD5=[916cc36465a587fc267a22005d524507]
link MotifWidgetFactory to MotifWindow--><path d="M340.5296,414.1273 C345.8032,436.8039 352.1911,464.2718 357.1858,485.7488 " fill="none" id="MotifWidgetFactory-&gt;MotifWindow" style="stroke: #A80036; stroke-width: 1.0; stroke-dasharray: 7.0,7.0;"/><polygon fill="#A80036" points="358.3589,490.7931,360.2163,481.121,357.2263,485.9231,352.4242,482.9331,358.3589,490.7931" style="stroke: #A80036; stroke-width: 1.0;"/><text fill="#000000" font-family="sans-serif" font-size="13" lengthAdjust="spacingAndGlyphs" textLength="64" x="352.5" y="457.0669">«creates»</text><!--MD5=[0aca27ed88a9416450fab4fe9dab97b6]
link PMWidgetFactory to PMButton--><path d="M470.8442,409.2194 C465.0056,410.9297 459.197,412.5381 453.5,414 C375.3662,434.0494 343.5591,402.3141 274.5,444 C257.6941,454.1445 243.9978,471.0248 234.0468,486.4461 " fill="none" id="PMWidgetFactory-&gt;PMButton" style="stroke: #A80036; stroke-width: 1.0; stroke-dasharray: 7.0,7.0;"/><polygon fill="#A80036" points="231.3399,490.7502,239.5174,485.2613,234.0019,486.5177,232.7454,481.0021,231.3399,490.7502" style="stroke: #A80036; stroke-width: 1.0;"/><text fill="#000000" font-family="sans-serif" font-size="13" lengthAdjust="spacingAndGlyphs" textLength="64" x="275.5" y="457.0669">«creates»</text><!--MD5=[e2f6c931121960461462c39b8817f811]
link PMWidgetFactory to PMScrollBar--><path d="M664.4739,414.1273 C715.6927,439.2362 778.894,470.2192 824.2205,492.4395 " fill="none" id="PMWidgetFactory-&gt;PMScrollBar" style="stroke: #A80036; stroke-width: 1.0; stroke-dasharray: 7.0,7.0;"/><polygon fill="#A80036" points="828.8261,494.6973,822.5058,487.1439,824.3366,492.4963,818.9842,494.3272,828.8261,494.6973" style="stroke: #A80036; stroke-width: 1.0;"/><text fill="#000000" font-family="sans-serif" font-size="13" lengthAdjust="spacingAndGlyphs" textLength="64" x="757.5" y="457.0669">«creates»</text><!--MD5=[1cd04f306708fd97029cecc7d8b953bd]
link PMWidgetFactory to PMWindow--><path d="M585.2917,414.3581 C590.2638,430.4426 597.8998,447.9314 609.5,461 C625.4487,478.9674 647.9929,492.3037 669.1763,501.8134 " fill="none" id="PMWidgetFactory-&gt;PMWindow" style="stroke: #A80036; stroke-width: 1.0; stroke-dasharray: 7.0,7.0;"/><polygon fill="#A80036" points="673.9558,503.9058,667.3153,496.6323,669.3755,501.9007,664.1071,503.9609,673.9558,503.9058" style="stroke: #A80036; stroke-width: 1.0;"/><text fill="#000000" font-family="sans-serif" font-size="13" lengthAdjust="spacingAndGlyphs" textLength="64" x="610.5" y="457.0669">«creates»</text><!--MD5=[d6ee3c125b4c22268e23f34a23946f9f]
@startuml
WidgetFactory <|- - MotifWidgetFactory
WidgetFactory <|- - PMWidgetFactory

Button <|- - MotifButton
Button <|- - PMButton
Window <|- - MotifWindow
Window <|- - PMWindow
ScrollBar <|- - MotifScrollBar
ScrollBar <|- - PMScrollBar
Widget <|- - Button
Widget <|- - Window
Widget <|- - ScrollBar

GUI - -> "*" Widget
GUI - -> "1" WidgetFactory

MotifWidgetFactory ..> MotifButton: <<creates>>
MotifWidgetFactory ..> MotifScrollBar: <<creates>>
MotifWidgetFactory ..> MotifWindow: <<creates>>

PMWidgetFactory ..> PMButton: <<creates>>
PMWidgetFactory ..> PMScrollBar: <<creates>>
PMWidgetFactory ..> PMWindow: <<creates>>

interface WidgetFactory {
  + makeWindow(String): Window
  + makeScrollBar(String): ScrollBar
  + makeButton(String): Button
}

class GUI {
  - widgets: List<Widget>
  - widgetFactory: WidgetFactory
  + add(String, String): void
  + setStyle(WidgetFactory): void
  + present(): void
}

class MotifWidgetFactory{
  + makeWindow(String): Window
  + makeScrollBar(String): ScrollBar
  + makeButton(String): Button
}

class PMWidgetFactory {
  + makeWindow(String): Window
  + makeScrollBar(String): ScrollBar
  + makeButton(String): Button
}

abstract class Widget {
  - id: int
  - name: String
  + {abstract} present(): void
}

abstract class Window {
  - {static} priority = 1
}

class MotifWindow {
  + present(): void
}

class PMWindow {
  + present(): void
}

abstract class ScrollBar {
  - {static} priority  = 2
}

class MotifScrollBar {
  + present(): void
}

class PMScrollBar {
  + present(): void
}

abstract class Button {
  {static} priority = 3
}

class MotifButton {
  + present(): void
}

class PMButton {
  + present(): void
}
@enduml

PlantUML version 1.2019.11(Sun Sep 22 10:02:15 UTC 2019)
(GPL source distribution)
Java Runtime: OpenJDK Runtime Environment
JVM: OpenJDK 64-Bit Server VM
Java Version: 1.8.0_222-heroku-b10
Operating System: Linux
Default Encoding: UTF-8
Language: en
Country: US
--></g></svg>